<svg width="46" height="46" viewBox="0 0 46 46" fill="none" xmlns="http://www.w3.org/2000/svg">
<mask id="mask0" mask-type="alpha" maskUnits="userSpaceOnUse" x="0" y="0" width="46" height="46">
<circle cx="23" cy="23" r="23" fill="#0BCAD4"/>
</mask>
<g mask="url(#mask0)">
<circle cx="23" cy="23" r="23" fill="#0BCAD4"/>
<ellipse cx="23" cy="32" rx="15" ry="3" fill="#0AA8B0"/>
<path d="M21.9786 11.901C19.445 9.36735 15.3372 9.36735 12.8035 11.901C10.2699 14.4346 10.2699 18.5424 12.8035 21.076L13.8408 22.1133L23.0159 31.2884L23.689 21.1034L23.0159 12.9382L21.9786 11.901Z" fill="#E06379"/>
<path d="M33.2282 11.9002C30.6946 9.36659 26.5868 9.36659 24.0531 11.9002L23.0159 12.9375V31.2877L32.1909 22.1126L33.2282 21.0753C35.7618 18.5417 35.7618 14.4339 33.2282 11.9002Z" fill="#C63C50"/>
<path d="M14.7617 14.7308H13.4678C12.0515 14.7308 10.9033 15.879 10.9033 17.2953V25.8306L11.8517 27.1949V28.6576H14.7617L15.0734 26.9028L14.7617 23.5157V14.7308Z" fill="#F6DCCD"/>
<path d="M17.864 19.8351C16.9346 19.8351 16.1812 20.5885 16.1812 21.5179V22.8049H14.7617V28.6576H17.9222V27.1949L18.6712 25.8862V19.8351H17.864Z" fill="#F1CBBC"/>
<path d="M10.9033 28.2866H15.0734V31.7316H10.9033V28.2866Z" fill="#6B66D0"/>
<path d="M14.7617 28.2866H18.6712V31.7316H14.7617V28.2866Z" fill="#524798"/>
<path d="M31.2702 14.7308H32.564C33.9804 14.7308 35.1285 15.879 35.1285 17.2954V25.8306L34.1802 27.1949V28.6576H31.2701L30.9585 26.9028L31.2701 23.5157V14.7308H31.2702Z" fill="#F1CBBC"/>
<path d="M28.1678 19.8351C29.0972 19.8351 29.8506 20.5885 29.8506 21.5179V22.8049H31.2701V28.6576H28.1096V27.1949L27.3606 25.8862V19.8351H28.1678Z" fill="#F6DCCD"/>
<path d="M30.9585 28.2866H35.1285V31.7316H30.9585V28.2866Z" fill="#524798"/>
<path d="M27.3606 28.2866H31.2701V31.7316H27.3606V28.2866Z" fill="#6B66D0"/>
</g>
</svg>
