<svg width="30" height="30" viewBox="0 0 30 30" fill="none" xmlns="http://www.w3.org/2000/svg">
<path d="M7.21561 14.9339L6.97538 15.1741L5.77895 20.7536L3.27612 23.2564L4.59812 25.402L12.0662 18.5797L7.21561 14.9339Z" fill="#D5E7FF"/>
<path d="M15.0663 22.7845L11.7433 18.2568L4.59814 25.402L6.74373 26.724L9.2465 24.2211L14.826 23.0247L15.0663 22.7845Z" fill="#ACCEFF"/>
<path d="M5.33271 25.313L3.27606 23.2564L0.718154 25.8143C-0.239385 26.7719 -0.239385 28.3243 0.718154 29.2818L5.33271 25.313Z" fill="#6B66D0"/>
<path d="M6.74375 26.724L5.00996 24.9902L0.718262 29.2819C1.6758 30.2394 3.22824 30.2394 4.18578 29.2819L6.74375 26.724Z" fill="#524798"/>
<path d="M28.3742 1.62593C26.2062 -0.541917 22.6914 -0.541917 20.5235 1.62593L19.4468 2.70265L23.0242 7.62154L28.3742 1.62593Z" fill="#D5E7FF"/>
<path d="M28.3742 1.62593L22.7524 7.24771L27.2975 10.5533L28.3742 9.47656C30.5421 7.30865 30.5421 3.79384 28.3742 1.62593V1.62593Z" fill="#ACCEFF"/>
<path d="M7.21387 14.9337L19.4432 2.70441L23.6907 6.95191L11.4614 19.1813L7.21387 14.9337Z" fill="#EAF1FF"/>
<path d="M11.1384 18.8591L23.3678 6.6297L27.2925 10.5544L15.0631 22.7838L11.1384 18.8591Z" fill="#D5E7FF"/>
<path d="M11.4124 15.3942L18.8559 7.95056L20.652 9.74666L13.2085 17.1903L11.4124 15.3942Z" fill="#D5E7FF"/>
<path d="M13.0076 16.9897L20.4512 9.54616L22.0465 11.1415L14.6029 18.5851L13.0076 16.9897Z" fill="#ACCEFF"/>
<path d="M21.5941 4.84994C20.6122 5.83192 20.6122 7.42409 21.5941 8.40606L23.6951 6.95088L25.1503 4.84994C24.1683 3.86791 22.5762 3.86791 21.5941 4.84994V4.84994Z" fill="#E06379"/>
<path d="M25.1501 4.84993L21.594 8.40604C22.576 9.38801 24.1681 9.38801 25.1501 8.40604C26.1321 7.42401 26.1321 5.8319 25.1501 4.84993V4.84993Z" fill="#C63C50"/>
</svg>
