<svg width="30" height="27" viewBox="0 0 30 27" fill="none" xmlns="http://www.w3.org/2000/svg">
<path d="M13.7154 2.35318C10.5779 -0.784395 5.49082 -0.784395 2.35318 2.35318C-0.784395 5.49076 -0.784395 10.5778 2.35318 13.7155L3.63773 15L15 26.3623L15.8336 13.7493L15 3.63774L13.7154 2.35318Z" fill="#E06379"/>
<path d="M27.6468 2.35324C24.5092 -0.784393 19.4221 -0.784393 16.2845 2.35324L15 3.63773V26.3623L26.3623 15L27.6468 13.7154C30.7844 10.5779 30.7844 5.49082 27.6468 2.35324V2.35324Z" fill="#C63C50"/>
<path d="M11.7923 13.578C10.5292 14.8411 10.5292 16.8889 11.7923 18.1521C12.6606 19.0204 13.8998 19.2918 14.9999 18.9662L15.7684 14.7349L14.9999 10.3704L11.7923 13.578Z" fill="#F6DCCD"/>
<path d="M24.8161 5.12824C23.553 3.86519 21.5052 3.86519 20.2421 5.12824L15 10.3704V18.9662C15.5002 18.8182 15.9715 18.5469 16.3663 18.152L24.8162 9.70224C26.0792 8.4392 26.0792 6.39134 24.8161 5.12824V5.12824Z" fill="#F1CBBC"/>
<path d="M13.7302 11.6401L15 12.9099L15.6597 11.6402L15 10.3704L13.7302 11.6401Z" fill="#EEBCA8"/>
<path d="M22.8782 11.6401L18.3042 7.06618L15 10.3704V12.9099L18.3042 16.2141L22.8782 11.6401Z" fill="#E9A48C"/>
</svg>
