<svg width="26" height="22" viewBox="0 0 26 22" fill="none" xmlns="http://www.w3.org/2000/svg">
<path d="M11.9786 1.90095C9.445 -0.632655 5.33718 -0.632655 2.80353 1.90095C0.269918 4.43456 0.269918 8.54238 2.80353 11.076L3.84081 12.1133L13.0159 21.2884L13.689 11.1034L13.0159 2.93823L11.9786 1.90095Z" fill="#E06379"/>
<path d="M23.2282 1.90024C20.6946 -0.633414 16.5868 -0.633414 14.0531 1.90024L13.0159 2.93752V21.2877L22.1909 12.1126L23.2282 11.0753C25.7618 8.54172 25.7618 4.43385 23.2282 1.90024Z" fill="#C63C50"/>
<path d="M4.76174 4.7308H3.46783C2.05151 4.7308 0.90332 5.87899 0.90332 7.29531V15.8306L1.8517 17.1949V18.6576H4.76174L5.07336 16.9028L4.76174 13.5157V4.7308Z" fill="#F6DCCD"/>
<path d="M7.864 9.83507C6.9346 9.83507 6.18116 10.5885 6.18116 11.5179V12.8049H4.76172V18.6576H7.9222V17.1949L8.67119 15.8862V9.83507H7.864Z" fill="#F1CBBC"/>
<path d="M0.90332 18.2866H5.07336V21.7316H0.90332V18.2866Z" fill="#6B66D0"/>
<path d="M4.76172 18.2866H8.67119V21.7316H4.76172V18.2866Z" fill="#524798"/>
<path d="M21.2702 4.7308H22.564C23.9804 4.7308 25.1285 5.87899 25.1285 7.29536V15.8306L24.1802 17.1949V18.6576H21.2701L20.9585 16.9028L21.2701 13.5157V4.7308H21.2702Z" fill="#F1CBBC"/>
<path d="M18.1678 9.83507C19.0972 9.83507 19.8506 10.5885 19.8506 11.5179V12.8049H21.2701V18.6576H18.1096V17.1949L17.3606 15.8862V9.83507H18.1678Z" fill="#F6DCCD"/>
<path d="M20.9585 18.2866H25.1285V21.7316H20.9585V18.2866Z" fill="#524798"/>
<path d="M17.3606 18.2866H21.2701V21.7316H17.3606V18.2866Z" fill="#6B66D0"/>
</svg>
