<svg width="86" height="75" viewBox="0 0 86 75" fill="none" xmlns="http://www.w3.org/2000/svg">
<path d="M78.4414 20.0146H73.1637C68.6749 9.44176 58.7907 1.7583 47.4117 0.290861C36.1353 -1.20041 25.0557 3.10511 17.8072 11.7721C15.6764 14.3203 13.9861 17.0906 12.7485 20.0146H7.55859C3.39062 20.0146 0 23.3781 0 27.5126V37.51C0 41.6445 3.39062 45.008 7.55859 45.008H17.9056L16.8231 41.73C13.6711 32.1817 15.4452 22.426 21.6875 14.9646C27.8215 7.63008 37.1884 4.00071 46.7573 5.24554C56.8769 6.5532 65.6608 13.6525 69.1411 23.3364L69.1623 23.3926C69.7233 24.8717 70.117 26.3923 70.3433 27.9568C71.0987 32.6309 70.6681 37.3683 69.1008 41.6569L69.0897 41.6867C65.1994 52.6436 54.736 60.004 43.0492 60.004C38.854 60.004 35.4414 63.3674 35.4414 67.502C35.4414 71.6366 38.832 75 43 75C47.168 75 50.5586 71.6366 50.5586 67.502V64.1312C60.6189 61.7592 69.0691 54.6849 73.1307 45.0078H78.4414C82.6094 45.0078 86 41.6444 86 37.5098V27.5125C86 23.3779 82.6094 20.0146 78.4414 20.0146V20.0146Z" fill="#09CE67"/>
<path d="M64 32.5C64 44.3743 54.3743 54 42.5 54C30.6257 54 21 44.3743 21 32.5C21 20.6257 30.6257 11 42.5 11C54.3743 11 64 20.6257 64 32.5Z" fill="#09CE67"/>
<path d="M64.0001 32.5C64.0001 32.1381 63.9909 31.7783 63.9732 31.4207L53.754 21.2015L28.4104 45.0694L36.4877 53.1467C38.396 53.7015 40.4129 54 42.5001 54C54.3744 54 64.0001 44.3743 64.0001 32.5Z" fill="#1AAD5C"/>
<path d="M47.959 15.4066H31.2461V44.1292H53.7539V21.2015L47.959 15.4066Z" fill="white"/>
<path d="M53.7541 21.2015L47.9592 15.4066H42.4802V44.1292H53.7541V21.2015Z" fill="#E9EDF5"/>
<path d="M47.959 21.2015H53.7539L47.959 15.4066V21.2015Z" fill="#A3D4FF"/>
<path d="M39.1683 27.5449L37.0267 24.2695H28.4104V45.0694H56.5898V27.5449H39.1683Z" fill="#FFD400"/>
<path d="M42.4802 27.5449H56.5899V45.0694H42.4802V27.5449Z" fill="#FDBA12"/>
<path d="M39.3537 33.1183H32.3269V35.1635H34.8176V40.238H36.863V35.1635H39.3537V33.1183Z" fill="#414952"/>
<path d="M52.6735 33.2109H50.4712L49.4748 34.9451L48.4785 33.2109L46.2759 33.2113L48.2948 36.7245L46.2759 40.2381H48.4785L49.4748 38.5039L50.4712 40.2381H52.6735L50.6545 36.7245L52.6735 33.2109Z" fill="#333940"/>
<path d="M43.8108 40.238H45.856L43.9158 33.2112H40.8218L38.8813 40.238H40.9268L41.4199 38.4521H43.3178L43.8108 40.238ZM41.8139 37.0253L42.3687 35.0153L42.9238 37.0253H41.8139Z" fill="#414952"/>
<path d="M43.9162 33.2112H42.4802V35.4175L42.9241 37.0253H42.4802V38.4521H43.3181L43.8112 40.238H45.8563L43.9162 33.2112Z" fill="#333940"/>
</svg>
